{"title":"Zathura- A Space Adventure (2005)  BDRip 1080p Dual Audio [ Hin","uid":9274051,"size":3785267976,"categoryP":"video","categoryS":"hd___movies","magnet":"?xt=urn:btih:fa17b7818c2b47c40349bd65f6dd8aa86e96a0d4&amp;dn=Zathura-+A+Space+Adventure+%282005%29++BDRip+1080p+Dual+Audio+%5B+Hin+&amp;tr=udp%3A%2F%2Ftracker.openbittorrent.com%3A80&amp;tr=udp%3A%2F%2Fopen.demonii.com%3A1337&amp;tr=udp%3A%2F%2Ftracker.coppersurfer.tk%3A6969&amp;tr=udp%3A%2F%2Fexodus.desync.com%3A6969","seeders":0,"leechers":1,"uploader":"tariq51","files":7,"time":1385827388,"description":"                                           [IMG]http://i.imgur.com/LhRnzSt.png[/IMG]\n\n\n\n[b][i][size=3][color=blue]RELEASE TITLE:[/color][/size][/i][/b]\n          ======================================\n[b][i][size=3][color=maroon]Zathura- A Space Adventure (2005)  BDRip 1080p Dual Audio [ Hin DD 5.1-Eng 5.1] Tariq Qureshi.mkv[/color][/size][/i][/b]\n\n\n                     =================================================\n[b][i][size=2][color=fuchsia]THANKS TO \n   MOHSIN PATHAN FOR HINDI AUDIO [/color][/size][/i][/b]\n                            \n                                         \n========================================================================\n[IMG]http://i.imgur.com/gpCO98J.jpg[/IMG]\n===========================================\n\n[b][i][size=3][color=red]General:[/color][/size][/i][/b]\n======================================\n[b][i][size=2][color=green]IMDB LINK                                :http://www.imdb.com/title/tt0406375/\nFormat                                   : Matroska\nFormat version                           : Version 4 / Version 2\nFile size                                : 3.38 GiB\nDuration                                 : 1h 41mn\nOverall bit rate                         : 4 779 Kbps\nEncoded date                             : UTC 2013-11-29 16:56:30\nMovie name                               : Zathura- A Space Adventure (2005)  BDRip 1080p Dual Audio [ Hin DD 5.1-Eng 5.1] Tariq Qureshi.mkv[/color][/size][/i][/b]\n                                   \n=======================================================================================\n[b][i][size=3][color=red]VIDEO:[/color][/size][/i][/b]\n                            =======================\n\n[b][i][size=2][color=green]ID                                       : 1\nFormat                                   : AVC\nFormat/Info                              : Advanced Video Codec\nFormat profile                           : &lt;a class=&quot;__cf_email__&quot; href=&quot;/cdn-cgi/l/email-protection&quot; data-cfemail=&quot;c08da1a9ae808cf4eef0&quot;&gt;[email&amp;#160;protected]&lt;/a&gt;&lt;script cf-hash='f9e31' type=&quot;text/javascript&quot;&gt;\n/* &lt;![CDATA[ */!function(){try{var t=&quot;currentScript&quot;in document?document.currentScript:function(){for(var t=document.getElementsByTagName(&quot;script&quot;),e=t.length;e--;)if(t[e].getAttribute(&quot;cf-hash&quot;))return t[e]}();if(t&amp;&amp;t.previousSibling){var e,r,n,i,c=t.previousSibling,a=c.getAttribute(&quot;data-cfemail&quot;);if(a){for(e=&quot;&quot;,r=parseInt(a.substr(0,2),16),n=2;a.length-n;n+=2)i=parseInt(a.substr(n,2),16)^r,e+=String.fromCharCode(i);e=document.createTextNode(e),c.parentNode.replaceChild(e,c)}}}catch(u){}}();/* ]]&gt; */&lt;/script&gt;\nFormat settings, CABAC                   : Yes\nFormat settings, ReFrames                : 4 frames\nCodec ID                                 : V_MPEG4/ISO/AVC\nDuration                                 : 1h 41mn\nBit rate                                 : 3 900 Kbps\nWidth                                    : 1 920 pixels\nHeight                                   : 1 038 pixels\nDisplay aspect ratio                     : 1.85:1\nFrame rate mode                          : Constant\nFrame rate                               : 25.000 fps\nLanguage                                 : English\nDefault                                  : Yes\nForced                                   : No[/color][/size][/i][/b]\n=====================================================================================\n[b][i][size=3][color=red]AUDIO:1[/color][/size][/i][/b]\n          ================\n[b][i][size=2][color=green]ID                                       : 2\nFormat                                   : AC-3\nFormat/Info                              : Audio Coding 3\nMode extension                           : CM (complete main)\nFormat settings, Endianness              : Big\nCodec ID                                 : A_AC3\nDuration                                 : 1h 41mn\nBit rate mode                            : Constant\nBit rate                                 : 448 Kbps\nChannel(s)                               : 6 channels\nChannel positions                        : Front: L C R, Side: L R, LFE\nSampling rate                            : 48.0 KHz\nBit depth                                : 16 bits\nCompression mode                         : Lossy\nStream size                              : 325 MiB (9%)\nTitle                                    : 5.1 Tariq Qureshi\nLanguage                                 : English\nDefault                                  : No[/color][/size][/i][/b]\n\n===================================================================================\n[b][i][size=3][color=red]AUDIO:2[/color][/size][/i][/b]\n            ================\n[b][i][size=2][color=green]ID                                       : 3\nFormat                                   : AC-3\nFormat/Info                              : Audio Coding 3\nMode extension                           : CM (complete main)\nFormat settings, Endianness              : Big\nCodec ID                                 : A_AC3\nDuration                                 : 1h 41mn\nBit rate mode                            : Constant\nBit rate                                 : 448 Kbps\nChannel(s)                               : 6 channels\nChannel positions                        : Front: L C R, Side: L R, LFE\nSampling rate                            : 48.0 KHz\nBit depth                                : 16 bits\nCompression mode                         : Lossy\nDelay relative to video                  : 2s 0ms\nStream size                              : 325 MiB (9%)\nTitle                                    : DD 5.1  Tariq Qureshi\nLanguage                                 : Hindi\nDefault                                  : Yes\nForced                                   : No[/color][/size][/i][/b]\n\n===================================================================================\n[b][i][size=3][color=red][IMG]http://i.imgur.com/Q3KFG70.gif[/IMG][/color][/size][/i][/b]\n            =========================\n[IMG]http://i.imgur.com/jxEUiUm.png[/IMG]\n[IMG]http://i.imgur.com/zNH9xzq.png[/IMG]\n[IMG]http://i.imgur.com/4FCXgxN.png[/IMG]\n[IMG]http://i.imgur.com/LiK80t5.png[/IMG]\n[IMG]http://i.imgur.com/Vub21iV.png[/IMG]\n[IMG]http://i.imgur.com/Gc1slz8.png[/IMG]\n[IMG]http://i.imgur.com/CRcRlIu.png[/IMG]\n[IMG]http://i.imgur.com/iNMU8hk.png[/IMG]\n===================================================================================\n                                                [IMG]http://i.imgur.com/MO8y8TI.jpg[/IMG]\n===================================================================================\n\n[b][i][size=3][color=red]SEEDING FROM HIGH SPEED SEEDBOX[/color][/size][/i][/b]","torrent":{"xt":"urn:btih:fa17b7818c2b47c40349bd65f6dd8aa86e96a0d4","amp;dn":"Zathura-+A+Space+Adventure+%282005%29++BDRip+1080p+Dual+Audio+%5B+Hin+","amp;tr":["udp%3A%2F%2Ftracker.openbittorrent.com%3A80","udp%3A%2F%2Fopen.demonii.com%3A1337","udp%3A%2F%2Ftracker.coppersurfer.tk%3A6969","udp%3A%2F%2Fexodus.desync.com%3A6969"],"infoHash":"fa17b7818c2b47c40349bd65f6dd8aa86e96a0d4","infoHashBuffer":{"type":"Buffer","data":[250,23,183,129,140,43,71,196,3,73,189,101,246,221,138,168,110,150,160,212]},"announce":[],"urlList":[]}}